:SAMPLES-PER-SECOND 30
:FULLY-SPECIFIED
:DEGREES
196
root  40.3214 33.5538 -65.5543 -1.06271 -47.4177 -0.347243
RightUpLeg  -4.46716 -0.138872 0.523764
RightLeg  15.4899 -6.45905 -1.34549
RightFoot  -0.0919258 -0.0438354 -0.0181786
RightToes  -23.8724 -0.0901017 -0.189936
Spine  5.00694 -2.09093 0.318244
Spine1  9.31863 -4.07077 0.0432733
HEad  13.1153 3.42408 6.63256
LeftShoulder1  0 -2.42657e-020 -4.95415e-022
LeftArm  17.1993 8.38861 -78.2144
LeftForeArm  49.2365 -71.0663 -31.1549
LeftHand  -0.0817038 -0.756943 13.0375
RightShoulder  0 2.42657e-020 1.07489e-018
RightArm  15.2729 -20.1112 64.5854
RightForeArm  151.974 76.462 132.019
RightHand  -4.90639 14.1423 -37.7535
LeftUpLeg  -4.11548 3.6879 2.8301
LeftLeg  18.238 -1.44033 -0.376101
LeftFoot  -2.32262 -0.00973892 0.0130627
LeftToes  -13.0933 8.72033e-007 1.17809e-007
197
root  40.3244 33.5538 -65.5567 -1.0722 -47.5468 -0.330838
RightUpLeg  -4.50911 -0.0515825 0.516739
RightLeg  15.5212 -6.41735 -1.34051
RightFoot  -0.0872857 -0.0433859 -0.0188063
RightToes  -23.879 -0.0912196 -0.191312
Spine  5.02808 -2.08618 0.321614
Spine1  9.35946 -4.0621 0.0547595
HEad  13.0258 7.47823 5.4124
LeftShoulder1  0 -2.42657e-020 -4.95415e-022
LeftArm  17.1144 8.40677 -78.1987
LeftForeArm  49.3228 -71.0929 -31.2075
LeftHand  -0.0830481 -0.796499 12.9907
RightShoulder  0 2.42657e-020 1.07489e-018
RightArm  15.278 -20.0473 64.6192
RightForeArm  151.891 76.4795 131.934
RightHand  -4.91196 14.1703 -37.7229
LeftUpLeg  -4.09906 3.68321 2.81039
LeftLeg  18.2362 -1.30909 -0.341992
LeftFoot  -2.32639 -0.00965652 0.0123698
LeftToes  -13.0994 8.72033e-007 1.17809e-007
198
root  40.3243 33.5537 -65.5616 -1.08461 -47.6121 -0.317393
RightUpLeg  -4.54363 -0.0374236 0.511487
RightLeg  15.5614 -6.36582 -1.33445
RightFoot  -0.0977424 -0.0429199 -0.0192023
RightToes  -23.9075 -0.0923831 -0.192745
Spine  5.04276 -2.07853 0.32299
Spine1  9.38702 -4.04826 0.0601341
HEad  12.9939 9.59067 4.82618
LeftShoulder1  0 -2.42657e-020 -4.95415e-022
LeftArm  17.058 8.36949 -78.2073
LeftForeArm  49.366 -71.0901 -31.202
LeftHand  -0.0846815 -0.764608 12.9506
RightShoulder  0 2.42657e-020 1.07489e-018
RightArm  15.3034 -20.0376 64.637
RightForeArm  151.964 76.4817 131.924
RightHand  -4.911 14.1555 -37.7534
LeftUpLeg  -4.0969 3.71845 2.81238
LeftLeg  18.2489 -1.28661 -0.336461
LeftFoot  -2.34168 -0.00953549 0.0113004
LeftToes  -13.0416 8.72033e-007 1.17809e-007
199
root  40.3229 33.5536 -65.5696 -1.08524 -47.6263 -0.312094
RightUpLeg  -4.56265 -0.0786457 0.513065
RightLeg  15.5715 -6.31388 -1.32479
RightFoot  -0.0992797 -0.042438 -0.0193518
RightToes  -23.887 -0.0935926 -0.194236
Spine  5.05665 -2.06675 0.317249
Spine1  9.41161 -4.02803 0.0566024
HEad  12.9434 11.4387 4.18223
LeftShoulder1  0 -2.42657e-020 -4.95415e-022
LeftArm  17.0735 8.25983 -78.2006
LeftForeArm  49.2884 -71.0551 -31.1325
LeftHand  -0.0869519 -0.75114 12.9551
RightShoulder  0 2.42657e-020 1.07489e-018
RightArm  15.2521 -20.0915 64.6908
RightForeArm  151.978 76.5004 131.833
RightHand  -4.93053 14.1562 -37.8923
LeftUpLeg  -4.10386 3.69897 2.81375
LeftLeg  18.2454 -1.25143 -0.327241
LeftFoot  -2.32843 -0.00938276 0.0099667
LeftToes  -13.0714 8.72033e-007 1.17809e-007
200
root  40.3216 33.5534 -65.5794 -1.08615 -47.5868 -0.305435
RightUpLeg  -4.58399 -0.0682799 0.525211
RightLeg  15.6061 -6.35691 -1.33778
RightFoot  -0.125075 -0.0419406 -0.0192403
RightToes  -23.8703 -0.0948488 -0.195787
Spine  5.07678 -2.06318 0.297351
Spine1  9.45091 -4.02013 0.0189742
HEad  12.861 12.0719 3.67025
LeftShoulder1  0 -2.42657e-020 -4.95415e-022
LeftArm  16.9951 8.1902 -78.2305
LeftForeArm  49.4521 -71.0547 -31.1316
LeftHand  -0.0960378 -0.830026 12.9375
RightShoulder  0 2.42657e-020 1.07489e-018
RightArm  15.2618 -20.0957 64.6754
RightForeArm  151.831 76.5271 131.702
RightHand  -4.89775 14.0591 -37.9023
LeftUpLeg  -4.11401 3.68165 2.82276
LeftLeg  18.2293 -1.26823 -0.331221
LeftFoot  -2.31023 -0.00920524 0.0084807
LeftToes  -13.1291 8.72033e-007 1.17809e-007
201
root  40.3207 33.5531 -65.5879 -1.08537 -47.5324 -0.302794
RightUpLeg  -4.58814 -0.115452 0.530354
RightLeg  15.608 -6.35064 -1.33669
RightFoot  -0.135317 -0.0414282 -0.0188531
RightToes  -23.8458 -0.0961523 -0.197397
Spine  5.08866 -2.06977 0.276393
Spine1  9.47465 -4.03164 -0.0229207
HEad  12.8394 11.6524 3.45487
LeftShoulder1  0 -2.42657e-020 -4.95415e-022
LeftArm  16.9564 8.18925 -78.2157
LeftForeArm  49.6911 -71.1151 -31.2513
LeftHand  -0.10034 -0.859509 13.0517
RightShoulder  0 2.42657e-020 1.07489e-018
RightArm  15.2673 -20.0471 64.6574
RightForeArm  151.841 76.5335 131.67
RightHand  -4.9974 14.5976 -37.2738
LeftUpLeg  -4.13093 3.69987 2.83615
LeftLeg  18.218 -1.33724 -0.348843
LeftFoot  -2.29158 -0.00900986 0.00695452
LeftToes  -13.144 8.72033e-007 1.17809e-007
202
root  40.3174 33.5527 -65.5927 -1.07928 -47.4983 -0.303846
RightUpLeg  -4.58726 -0.132728 0.538321
RightLeg  15.5974 -6.36774 -1.33667
RightFoot  -0.145404 -0.0409013 -0.0181754
RightToes  -23.814 -0.0975038 -0.199067
Spine  5.09532 -2.06562 0.257908
Spine1  9.48804 -4.02079 -0.0611462
HEad  12.7765 10.8063 3.24524
LeftShoulder1  0 -2.42657e-020 -4.95415e-022
LeftArm  16.9431 8.2192 -78.2023
LeftForeArm  49.9735 -71.1697 -31.3602
LeftHand  -0.0993308 -0.84688 13.116
RightShoulder  0 2.42657e-020 1.07489e-018
RightArm  15.3161 -19.983 64.5868
RightForeArm  151.853 76.5228 131.717
RightHand  -4.91986 14.1018 -37.9535
LeftUpLeg  -4.14324 3.6717 2.84292
LeftLeg  18.2156 -1.33569 -0.34838
LeftFoot  -2.27986 -0.00880352 0.00550024
LeftToes  -13.1772 8.72033e-007 1.17809e-007
203
root  40.3141 33.552 -65.5997 -1.07375 -47.479 -0.306717
RightUpLeg  -4.58642 -0.157497 0.54932
RightLeg  15.5813 -6.36949 -1.33753
RightFoot  -0.143974 -0.0403606 -0.0171926
RightToes  -23.7607 -0.0989037 -0.200798
Spine  5.1105 -2.05055 0.236085
Spine1  9.51795 -3.98678 -0.107199
HEad  12.6901 9.94264 3.10053
LeftShoulder1  0 -2.42657e-020 -4.95415e-022
LeftArm  16.9232 8.23199 -78.194
LeftForeArm  50.2657 -71.2228 -31.4666
LeftHand  -0.105175 -0.890749 13.2
RightShoulder  0 2.42657e-020 1.07489e-018
RightArm  15.3458 -19.8924 64.5215
RightForeArm  152.078 76.5105 131.784
RightHand  -4.97354 14.2015 -38.0868
LeftUpLeg  -4.17014 3.64461 2.84564
LeftLeg  18.2354 -1.30325 -0.340456
LeftFoot  -2.27004 -0.00859316 0.00422996
LeftToes  -13.1801 8.72033e-007 1.17809e-007
204
root  40.3164 33.5512 -65.6061 -1.06665 -47.5021 -0.308844
RightUpLeg  -4.59069 -0.148961 0.554641
RightLeg  15.5527 -6.36078 -1.3324
RightFoot  -0.137481 -0.0398065 -0.0158901
RightToes  -23.7456 -0.100353 -0.202592
Spine  5.1343 -2.02537 0.213933
Spine1  9.56357 -3.93291 -0.152637
HEad  12.6586 9.22162 3.08396
LeftShoulder1  0 -2.42657e-020 -4.95415e-022
LeftArm  16.8437 8.21019 -78.2174
LeftForeArm  50.4878 -71.2373 -31.4957
LeftHand  -0.109825 -0.91854 13.3664
RightShoulder  0 2.42657e-020 1.07489e-018
RightArm  15.3746 -19.7193 64.4732
RightForeArm  152.07 76.5199 131.738
RightHand  -4.96931 14.1859 -38.0961
LeftUpLeg  -4.20331 3.65417 2.84859
LeftLeg  18.2757 -1.32437 -0.346935
LeftFoot  -2.26814 -0.00838569 0.00325576
LeftToes  -13.1923 8.72033e-007 1.17809e-007
205
root  40.3242 33.5496 -65.6128 -1.06344 -47.491 -0.307662
RightUpLeg  -4.62323 -0.194434 0.548953
RightLeg  15.5833 -6.31293 -1.32595
RightFoot  -0.127469 -0.0392394 -0.0142531
RightToes  -23.8592 -0.101851 -0.204448
Spine  5.1736 -2.0016 0.190128
Spine1  9.63752 -3.88267 -0.200148
HEad  12.6882 8.64188 3.16182
LeftShoulder1  0 -2.42657e-020 -4.95415e-022
LeftArm  16.6902 8.13839 -78.2921
LeftForeArm  50.6386 -71.1719 -31.3635
LeftHand  -0.114565 -0.951705 13.4555
RightShoulder  0 2.42657e-020 1.07489e-018
RightArm  15.3378 -19.5161 64.4954
RightForeArm  152.018 76.5741 131.471
RightHand  -4.97772 14.2177 -38.0757
LeftUpLeg  -4.25981 3.5944 2.84541
LeftLeg  18.3477 -1.27827 -0.33666
LeftFoot  -2.29483 -0.00818803 0.00268973
LeftToes  -13.1453 8.72033e-007 1.17809e-007
206
root  40.3391 33.5473 -65.6191 -1.06642 -47.4386 -0.299063
RightUpLeg  -4.6798 -0.259437 0.526572
RightLeg  15.6545 -6.29091 -1.3295
RightFoot  -0.165377 -0.0387872 -0.0102927
RightToes  -23.8462 -0.1034 -0.206368
Spine  5.22922 -1.99726 0.16731
Spine1  9.73891 -3.87377 -0.243318
HEad  12.7243 8.21166 3.23824
LeftShoulder1  0 -2.42657e-020 -4.95415e-022
LeftArm  16.5272 8.03938 -78.2793
LeftForeArm  50.9065 -71.2181 -31.4563
LeftHand  -0.120396 -1.02118 13.1668
RightShoulder  0 2.42657e-020 1.07489e-018
RightArm  15.2963 -19.2934 64.6215
RightForeArm  151.937 76.7003 130.836
RightHand  -5.03981 14.1961 -38.5756
LeftUpLeg  -4.34509 3.55156 2.82517
LeftLeg  18.4369 -1.28994 -0.341872
LeftFoot  -2.31597 -0.0080071 0.00264397
LeftToes  -13.0901 8.72033e-007 1.17809e-007
207
root  40.3665 33.5411 -65.6246 -1.07167 -47.2826 -0.269705
RightUpLeg  -4.795 -0.413389 0.465971
RightLeg  15.8138 -6.2698 -1.34329
RightFoot  -0.232418 -0.0385071 -0.00311126
RightToes  -24.0226 -0.104999 -0.208352
Spine  5.31412 -2.01643 0.14324
Spine1  9.89374 -3.91427 -0.287055
HEad  12.6238 7.88709 3.31752
LeftShoulder1  0 -2.42657e-020 -4.95415e-022
LeftArm  16.4036 7.83379 -78.1239
LeftForeArm  51.2863 -71.5565 -32.1539
LeftHand  -0.122791 -1.09412 12.5154
RightShoulder  0 2.42657e-020 1.07489e-018
RightArm  15.1088 -19.0603 64.888
RightForeArm  151.877 76.8661 129.971
RightHand  -5.11242 14.2298 -39.007
LeftUpLeg  -4.51778 3.40033 2.76366
LeftLeg  18.6133 -1.25614 -0.337132
LeftFoot  -2.36611 -0.00784981 0.00323055
LeftToes  -13.1003 8.72033e-007 1.17809e-007
208
root  40.4123 33.5277 -65.6266 -1.04282 -47.0032 -0.192582
RightUpLeg  -5.03845 -0.624353 0.337054
RightLeg  16.078 -6.43084 -1.40868
RightFoot  -0.313943 -0.0383609 0.00670265
RightToes  -24.5592 -0.108305 -0.212431
Spine  5.41085 -2.06117 0.132483
Spine1  10.0687 -4.01007 -0.301538
HEad  12.277 7.59004 3.34051
LeftShoulder1  0 -2.42657e-020 -4.95415e-022
LeftArm  16.616 7.44646 -77.7164
LeftForeArm  52.6221 -72.2825 -33.7573
LeftHand  -0.116052 -1.08163 11.954
RightShoulder  0 2.42657e-020 1.07489e-018
RightArm  15.0263 -18.8551 65.0393
RightForeArm  153.41 76.931 129.631
RightHand  -5.26433 14.2554 -40.0174
LeftUpLeg  -4.87419 3.20328 2.6285
LeftLeg  18.9336 -1.28487 -0.352536
LeftFoot  -2.47369 -0.00781561 0.00599946
LeftToes  -12.9824 8.72033e-007 1.17809e-007
209
root  40.5351 33.5036 -65.6217 -0.94205 -46.5982 0.179795
RightUpLeg  -5.86558 -1.47644 -0.144957
RightLeg  16.7732 -5.95361 -1.38059
RightFoot  -0.64775 -0.0398784 0.0429091
RightToes  -24.8971 -0.110205 -0.214683
Spine  5.45524 -2.13781 0.0935651
Spine1  10.1387 -4.17132 -0.363161
HEad  11.4171 7.45373 3.18625
LeftShoulder1  0 -2.42657e-020 -4.95415e-022
LeftArm  17.2175 6.52123 -76.822
LeftForeArm  56.0752 -73.2108 -36.0529
LeftHand  -0.164093 -1.56625 11.6425
RightShoulder  0 2.42657e-020 1.07489e-018
RightArm  15.2609 -18.5164 65.0005
RightForeArm  156.563 76.925 129.683
RightHand  -5.55227 14.0062 -42.7308
LeftUpLeg  -5.66902 2.45171 2.10876
LeftLeg  19.3448 -0.889613 -0.25171
LeftFoot  -2.5726 -0.00665843 -0.00840958
LeftToes  -12.7354 8.72033e-007 1.17809e-007
210
root  40.5818 33.4936 -65.6355 -0.691964 -46.1327 0.0156789
RightUpLeg  -6.08016 -1.49608 -0.0470469
RightLeg  16.9442 -6.39804 -1.50327
RightFoot  -0.71212 -0.0397043 0.0534201
RightToes  -24.7947 -0.111517 -0.216149
Spine  5.65003 -2.11603 0.155153
Spine1  10.483 -4.1534 -0.20633
HEad  10.042 7.12013 3.09391
LeftShoulder1  0 -2.42657e-020 -4.95415e-022
LeftArm  18.3548 4.6873 -75.3666
LeftForeArm  63.1699 -74.5453 -39.9719
LeftHand  -0.290189 -2.49239 12.9459
RightShoulder  0 2.42657e-020 1.07489e-018
RightArm  15.2142 -18.2675 64.7446
RightForeArm  162.999 76.6292 131.265
RightHand  -6.0473 13.8344 -46.7058
LeftUpLeg  -6.19308 2.40255 2.19893
LeftLeg  19.8119 -1.28526 -0.374007
LeftFoot  -2.73053 -0.00764238 0.0107345
LeftToes  -12.6273 8.72033e-007 1.17809e-007
